<svg version="1" xmlns="http://www.w3.org/2000/svg" width="853.333" height="853.333" viewBox="0 0 640.000000 640.000000"><path d="M304.6 20.7c-.2 1-.7 3.4-1.1 5.3-1.6 8.7-2.4 8.7-5.3 0-1.8-5.2-2.1-5.5-5.3-5.5h-3.4l.2 5c.7 13.6 1.4 17.6 3.1 17.3 1.4-.3 1.6-1.4 1.4-6-.4-6.9 1.1-8.2 2.7-2.5 1.6 5.3 3.7 8.7 5.6 8.7 1.5 0 1.8-.7 3.6-9.5l1.3-6 1 7c.9 5.6 1.5 7.1 3 7.3 1.8.4 1.9-.1 1.2-10.4-.4-5.9-.9-11.1-1.2-11.6-1-1.6-6.2-.9-6.8.9zM319.7 19.6c-.4.4-.7 5.6-.7 11.6 0 9.9.2 10.9 1.8 10.6 1.3-.2 1.8-1.5 2-6.1.2-3.1.6-5.7 1.1-5.7.4 0 1.3 2.4 2 5.2 2.5 9.7 5.3 10.5 7.7 2 1.7-5.9 3.3-8.8 3.5-6.2.1.8.2 3.7.3 6.5.1 3.7.5 5 1.7 5.3 2.4.4 3.7-20.4 1.5-22.6-1.2-1.2-2-1.3-3.9-.5-1.8.8-2.8 2.7-4.1 7.3-1 3.6-2.1 5.9-2.7 5.3-.4-.4-1.5-3.5-2.2-6.8-1.2-5.6-1.6-6-4.3-6.3-1.6-.2-3.3 0-3.7.4zM355.8 22.7C353 26 344.9 42 345.5 43c1.1 1.8 3.2 1.1 4.4-1.6 1-2.4 1.6-2.6 4.9-2 2 .3 4.3.6 5 .6.7 0 1.8 1.3 2.3 3 1.1 2.9 3.2 3.9 4.3 2.1.3-.5-.8-5.7-2.5-11.7-3.5-12.4-4.9-14.3-8.1-10.7zm4.2 11.5c0 1.3-.8 1.8-2.8 1.8-4.1 0-4.4-.8-1.9-5.2l2.2-4 1.2 2.9c.7 1.5 1.2 3.6 1.3 4.5zM249 27.1c0 3.4 3.4 19.1 4.5 20.5.7 1 1.9 1.5 2.8 1.1 1.3-.5 1.2-1.8-.9-10.7-1.3-5.6-2.7-10.6-3-11.1-.8-1.3-3.4-1.1-3.4.2zM231.2 31.3c-1.1 1.3-1.4 3.1-2.8 17.9-.7 6.5-.6 6.8 1.5 6.8 1.5 0 2.1-.6 2.1-2.3 0-3.4 1.1-4.4 6-5.7 4.1-1.1 4.6-1 6.1.9 1.9 2.3 4.9 2.8 4.9.9 0-1.2-9.9-14.6-13.2-18-2.1-2.1-3.2-2.2-4.6-.5zm5.8 8.2c2.4 3.9 2 5.5-1.6 5.5-2.1 0-2.4-.4-2.4-3.8 0-3.3.6-5.2 1.6-5.2.1 0 1.2 1.6 2.4 3.5zM270.1 36.1c-1.9.7-2.1 1.2-1.2 2.3.9 1.1 2 1.2 4.4.5 1.8-.5 3.3-.9 3.4-.9.2 0 .3-.7.3-1.5 0-1.7-3.2-1.9-6.9-.4zM410.5 42.9c-1.4 4.4-3.3 8.5-4 9.1-2.1 1.7-4.5.5-4.5-2.2 0-1.3-.4-2.9-.9-3.7-.8-1.2-1.2-1.2-2.5-.2-2.3 1.9-2 4.8.8 7.6 3.7 3.7 7.2 4.2 10.1 1.5 2.6-2.4 8.1-17.3 7-19-1.6-2.6-3.5-.5-6 6.9zM213.5 37c-.3.6-.1 2.6.5 4.6 1.4 4 1 4.6-4.2 6.7-4.1 1.7-4.4 1.5-6.3-3.1-1.4-3.2-4-4.3-4.8-2-.2.7.2 2.6.9 4.3.6 1.6 2.4 6 3.9 9.8 2.9 7.2 4.1 8.5 5.7 6.9.7-.7.5-2.5-.6-5.8-.9-2.6-1.5-4.8-1.3-5 .5-.5 8-3.4 8.8-3.4.4 0 1.7 2 2.8 4.5 2.1 4.8 5.2 6.2 5 2.2-.1-3.1-7.2-20-8.6-20.4-.6-.2-1.4.1-1.8.7zM379.2 40.6c.3 1.9 6.6 3.9 8 2.6 1.4-1.3-.7-3-4.6-3.7-3.3-.7-3.8-.5-3.4 1.1zM422.8 41.7c-3 7.7-6.8 17.9-6.8 18.6 0 .5 1 .7 2.1.5 1.7-.2 3-2.4 6-10.2 2.1-5.4 3.6-10.3 3.3-10.7-1.1-1.8-3.5-.8-4.6 1.8zM433.8 45.2c-6.8 12.4-7.4 17.5-2.5 21.2 7.7 5.9 12.1 4.2 17.3-6.7 3.7-7.7 4-9.2 2.3-10.3-1.5-.9-3.2 1.3-5.9 7.6-3 7.3-4.4 8.8-7.8 8.2-3.3-.6-5.2-2-5.2-3.9 0-.8 1.4-4.6 3.1-8.5 2.9-6.6 3.2-9.8 1-9.8-.6 0-1.6 1-2.3 2.2zM183.5 49.9c-3.8 2.1-7.1 4.6-7.3 5.5-.4 2 1.7 2.1 4.5.1 2.6-1.8 2.8-1.6 7.7 8.2 4.2 8.1 4.9 8.9 6.5 6.9 1-1.1.3-3.2-3-9.7l-4.1-8.3 2.1-1.7c1.2-1 2.7-1.9 3.3-2.1 1.4-.5.1-2.8-1.5-2.7-.7 0-4.3 1.7-8.2 3.8zM169.9 59.7c-.1 2.1-.4 4.8-.7 6.1l-.7 2.3-4.8-2.6c-2.7-1.4-5.3-2.3-5.8-2-2.1 1.4-.6 3.3 4.8 6.1 3.6 1.9 6.7 4.4 8.7 7.1 2.9 4.1 4.5 5.1 5.9 3.6.4-.3-.5-2.6-1.9-5.1-2.3-3.9-2.6-5.2-2-10.3.6-6.5.1-8.9-2-8.9-.9 0-1.4 1.3-1.5 3.7zM296 56.3c-.3.3-3.4.8-7 1.1-32 2.7-70.9 15.1-101.3 32.3-57.5 32.4-101.3 85.6-121 146.8-3.2 10.1-4.2 13.9-8.2 31-3.3 14.5-4.8 34.4-4.2 57 .6 23.5 2 33.9 7.6 57.6 7.5 31.4 22.7 63.1 44 91.9 8.6 11.5 33.7 38 43.4 45.6 33.7 26.7 70.7 44.7 110.2 53.6 30.2 6.7 71.6 7.6 103.5 2.2 9.3-1.6 29-6.4 36.6-9 77-25.9 136.4-82.9 164.7-158 15.1-39.9 19.7-86.2 13.1-132.4-1.4-10.4-2.4-14.4-7.1-31C546.9 162.5 480.6 94.5 398 68.5c-6.3-2-12.2-3.8-13-4-27.1-6.2-37.9-7.6-64.5-8.2-13.2-.3-24.2-.3-24.5 0zm23.4 8.7c5.8 2.2 8.2 11.2 4.8 18-2.3 4.7-5.4 6.1-13.2 5.8l-6.5-.3-.3-10.9c-.1-6.1 0-11.6.2-12.3.6-1.6 11.1-1.8 15-.3zm17 .7c.4.9.4 4.9 0 8.9-.7 8.2.2 10.4 4.2 10.4 3.1 0 4.4-2.7 4.4-9.2 0-8.9 1.6-11.7 5.6-10.1 1.4.5 1.6 1.8 1 9-.3 4.7-1.3 9.7-2.1 11.3-2 3.8-7 5.5-12.3 4.1-6.4-1.8-7.4-3.7-7.3-13.6.1-4.7.6-9.5 1.1-10.6 1.3-2.3 4.6-2.5 5.4-.2zm-82.8 1.8c.4.8.1 2.2-.6 3-1.1 1.3-1 1.8.2 2.8 3.3 2.7 13.9 17.9 13.6 19.5-.5 2.6-4.4 2.7-6.2 0-1.5-2.2-1.7-2.2-5.8-.8-3.5 1.2-4.4 2-4.8 4.5-.4 2.2-1.1 3-2.5 3-2.6 0-2.9-2.4-2-14.3.5-7.3 1.1-9.8 2.6-11.3 1.9-1.9 1.9-1.9-.5-1.9-1.3 0-2.6.5-2.8 1.2-.6 1.7-2.8 0-2.8-2.2 0-2 1.9-3 5.5-3 1.3 0 2.7-.5 3-1 .9-1.5 2.5-1.2 3.1.5zm32.2.6c5.4 3.4 7 15.4 2.7 20.1-5.4 5.9-15.7 5.5-19.5-.7-4.6-7.5-2.9-16 4-19.7 3.8-2 9.4-1.8 12.8.3zm85.6.8c1 .1 3.4 1.7 5.3 3.6 3.5 3.5 3.6 3.7 3 9.6-.6 7.1-3 10.4-8.7 11.9-9.2 2.5-16.9-4.3-15.5-13.7 1-7.1 6.9-12.5 12.5-11.7.8.1 2.3.3 3.4.3zm18.4 5.8c.5 1 1 4.9 1.1 8.8.1 3.8.3 7.1.5 7.2.1.2 2.5-2.7 5.2-6.2 4.9-6.5 6.8-7.5 8.7-4.4.8 1.2-.5 3.5-6.1 10.6-4 5-7.7 9.3-8.4 9.6-.7.2-2.2.1-3.4-.3-1.9-.8-2.2-1.9-2.8-12.5-.6-8.5-.4-12 .4-13.1 1.7-1.9 3.7-1.8 4.8.3zm-154.1 7.7c2.6 2.3 2.7 2.6 1.2 4.1-1.5 1.5-1.9 1.6-4.7.1-4-2.1-5.5-2-7.6.3-3.5 3.8.7 13.1 5.9 13.1 2.6 0 5.5-3.3 5.5-6.3 0-2.2 2.6-3.3 4.4-1.8 1.7 1.4.6 7.6-1.7 9.9-1.2 1.2-1.3 1.9-.4 3.3 1.6 2.6-.1 5.1-4.2 6.3-3.6 1-4.9.3-3.2-1.7 1.4-1.7-.1-3.2-4.1-4.2-7.2-1.8-11.9-13.2-8.1-19.7 3.6-6.2 11.9-7.8 17-3.4zm178.9.9c.4 1.2-3.5 13.2-6.7 19.9-1.7 3.7-5.9 4-5.9.4 0-2.5 5.6-18.1 7.3-20.4 1.2-1.6 4.6-1.6 5.3.1zm15.4 6.4c5.2 2.9 7 4.3 7 5.9 0 2.4-1.4 3.8-5 4.9-1.4.4-5 1.9-8 3.2l-5.5 2.4 5.3 3c3.4 2 5.2 3.7 5.2 5 0 2.8-2.1 2.4-11.1-2.1-12-6.1-11.8-7.8 1.6-13 4.7-1.8 8.5-3.7 8.5-4.2s-1.2-1.3-2.7-1.9c-3.9-1.4-6.3-3.8-5.6-5.5.8-2.2 2.8-1.7 10.3 2.3zm-221.1 6.7c9.5 7.9 12.1 10.5 12.1 12.2 0 2.3-3 2.9-6 1-2.7-1.5-3.1-1.5-6.4.1-3.2 1.5-3.6 2.1-3.6 5.5s-.3 3.8-2.5 3.8c-1.7 0-2.6-.7-3-2.3-.7-3.4-2.5-17.6-2.5-20.2 0-2.4 2.3-5.5 4.2-5.5.6 0 4.1 2.5 7.7 5.4zM446 99.3c0 2.4-1.3 5.1-6.9 15-2.6 4.6-3.8 5.7-5.5 5.5-3.3-.5-2.4-5.3 2.4-13.3 5.5-9 5.9-9.5 8.1-9.5 1.3 0 1.9.7 1.9 2.3zm-75.7 4.6c18.6 4.7 31.3 9.3 45.8 16.6 22.7 11.4 40.1 23.8 57.3 40.8 20.5 20.4 33.2 38.3 46 65C532.7 254 540 287.2 540 320c0 17-1.1 27.9-4.6 45-5.5 26.8-17.7 56.2-32.6 78.3-29.5 43.7-74.9 76.6-124.3 90.1-15.5 4.3-44.6 9.8-54.6 10.3-42.3 2.4-82.9-20.7-103.2-58.7-9.6-18-13.2-32.7-13.2-54 0-19.9 3.9-35.6 13.1-52.9 13.7-26.1 40.8-47.7 69-55.1 11.9-3.1 27.3-4.5 38.1-3.4 14.1 1.5 27.3-1.6 44.7-10.3 29.5-14.8 50-40.8 58.7-74.8 1.9-7.5 2.3-11.6 2.3-24.5 0-19-1.7-28-8.2-44-10.9-26.9-32.4-48.6-59.6-60.2-5-2.2-10-4.3-11.1-4.8-4-1.7.3-.9 15.8 2.9zm-184.7-2.1c1.8 1.2 12.4 17.8 12.4 19.4 0 1.5-1.9 2.8-4 2.8-.8 0-11.7-16-12.7-18.7-1.2-3.1 1.6-5.4 4.3-3.5zm271.2 2.4c.7.7 1.2 4.4 1.2 9.7v8.6l3.3-4.7c1.7-2.6 3.8-5 4.6-5.3 1.6-.6 4.1 1.2 4 2.9-.1 2.1-12.6 18.1-14.4 18.5-3.5.6-4.6-2.6-3.9-11.4l.6-8-3.6 5c-2 2.7-4.2 5.2-4.8 5.6-1.5 1-3.8-.8-3.8-2.9 0-1.6 9.2-14.7 12.3-17.5 2.3-2 2.9-2.1 4.5-.5zm-142.9 5.5c8.7 5.1 18.1 14.1 18.1 17.3 0 2.4 0 2.4-3-.8-2.5-2.8-3.3-3.1-5-2.2-2.6 1.4-2.6 4 .1 6.8 1.3 1.5 2.6 5.2 3.6 10.5 1.6 8.5 4.4 14.7 6.9 14.7.8 0 1.4-.9 1.4-2s-.4-2-.9-2-1.2-.9-1.5-2c-.3-1.1-.8-2.8-1.1-3.8-.4-1.3.2-2.2 2-3 1.3-.6 2.7-2.3 3.1-3.7.5-2 .9-2.3 2-1.4 2.1 1.7 1.7 3.7-1.1 5.5-5.7 3.7-1.5 9.4 7.2 9.7l4.8.2.3-4.4c.3-4 0-4.6-4.4-9-2.6-2.5-5.5-6-6.6-7.6-1.9-3.2-2.5-10.1-.8-9 .6.3 1 1.6 1 2.8 0 3.4 3.4 8.2 8.4 11.9 4.9 3.6 7.2 7.6 6.3 10.9-.8 3.1.2 4.9 2.8 4.9 3.3 0 3.9 1.5 1.4 3.8-2.3 2.2-2.2 5.5.2 6 .9.2 2.1-.9 2.8-2.4.8-1.9 1.5-2.4 2.3-1.6.7.7.3 2.4-1.6 5.9-2.2 4.1-2.5 5.5-1.8 9.2.6 3.9 1.3 4.8 4.7 6.5 3.3 1.7 4.1 2.7 4.3 5.4.3 3.2-1.3 4.3-3.4 2.2-1.4-1.4-5.2-.1-5.9 2.1-.8 2.4-1.5 2.4-7-.3-4.9-2.4-5.4-3.4-2.8-5.3.9-.7 1.3-1.7.9-2.3-.8-1.4-16.1-9.2-18-9.2-2.2 0-2.7-1.5-1.5-4.6.8-2.4.7-3.1-.7-4.1-1-.7-3.1-1.3-4.7-1.3-2.8 0-2.9.2-2.3 3.4.4 2.2.2 3.6-.5 3.8-1.6.5-.1 4.8 1.6 4.8.8 0 3.9 1.1 6.8 2.4 4.3 1.9 6 3.4 8.5 7.5 1.8 2.8 3.7 5.1 4.2 5.1.6 0 2.3.9 3.8 2 1.6 1.2 4 2.2 5.5 2.3 5.1.4 3.2 2.1-2.5 2.2-4 .1-5.8-.3-5.8-1.1 0-1.4-3.5-2.8-4.9-2-.5.3-.7-.3-.4-1.4.3-1.2-.1-2.2-1.1-2.6-.9-.3-1.6-1.6-1.6-2.8 0-1.1-.4-2.6-.8-3.3-1.2-1.9-7.2-4-13.4-4.8-6-.8-7-1.8-4-4.1 1.5-1.2 1.5-1.5.2-2.4-.8-.5-3.1-1-5.1-1-4.3 0-6.6-1.6-7.5-5.3-.8-3.4.2-3.4 3.3-.1 2.7 2.9 5.7 2.8 6.1-.2.2-1.6-.4-2.3-2.1-2.8-3.1-.7-4-2.9-2.5-6.1.9-1.9 1.4-2.2 2.5-1.4.7.6 1.3 2.2 1.3 3.5 0 3.2 3.7 5.2 5.8 3.1 1.4-1.4 1.3-1.8-.2-4.2-1.9-2.9-1.2-5 .8-2.3s6.6 2.8 6.6 0c0-3.2-7.4-25.3-9.2-27.2-1-1-2.6-2.4-3.5-2.9-1.6-1-1.6-1.2-.3-2.3 3.2-2.7-.7-9.1-9.5-15.5-5.3-3.8.2-2.8 7.4 1.4zm-134.5.6c1 .7 1.6 2.2 1.4 3.3-.3 1.6-1.1 1.9-5 1.6-4.1-.2-4.9 0-6.3 2.2-1.5 2.3-1.5 2.7.1 6.1 2.1 4.4 6.1 6.8 8.9 5.2 2.9-1.5 3.6-2.9 2.9-5.9-.4-2 0-2.9 1.4-3.7 2.6-1.4 4.2.4 4.2 4.9 0 8.3-9.2 13.5-17 9.5-7-3.6-9.4-14.5-4.2-20.2 1.5-1.6 3.4-3.3 4.2-3.6 2.8-1 7.6-.7 9.4.6zm106.2 1.1c11.5 4 11 3.6 8.3 5.7-2 1.5-2.2 2-1.1 4.3.6 1.4 3 3.7 5.3 5.2 3.4 2.1 5.3 2.6 10.4 2.5 7-.1 7.8.5 11.3 8 2.9 6 2.8 6.8-.5 3.7-3-2.8-16.3-9.8-23.3-12.3-7.2-2.5-29.3-1.9-39.2 1.1-1.5.4-1.7.1-1.2-2.5.4-1.9.2-3.7-.6-4.6-1.8-2.2-12.4-1.9-19.6.4-6 2-7.4 2.1-5.2.4 2-1.5 20-6.3 23.6-6.3 2.8 0 3.5.5 4.3 2.9 1.5 4.3 5.8 5.4 17.5 4.6 8.5-.7 9.6-1 11.4-3.3 1.1-1.3 2-3 2-3.7 0-1.1-4.6-4.7-9.5-7.4-3.1-1.6-1.4-1.3 6.1 1.3zm-5.1 6.6c0 1.7-3.4 2.8-9.7 2.9-6.1.1-6.8-2.5-1-3.4 2-.4 4.2-.8 4.7-1 2.3-.8 6 .1 6 1.5zm197.9 2.6c1.7 1.7 1.5 2.6-1.8 6.2l-2 2.3 3.2 3.2 3.2 3.2 3.1-3.3c3.3-3.5 3.9-3.8 5.7-2 2.1 2.1 1.4 3.5-5.9 11.8-5.2 5.8-7.7 8-9.5 8-3.2 0-3.2-2.9.1-6.8 3.1-3.7 3.1-4.1-.7-7.1l-3-2.4-3.3 3.6c-5 5.5-9.5 2.8-5.2-3 3.9-5.2 13-15.3 13.8-15.3.4 0 1.5.7 2.3 1.6zm-171.5 2.3c2.4 1.3 1.9 3.1-.8 3.1-2 0-7.1-3.6-7.1-5 0-1 4.6.2 7.9 1.9zm-58.4 4.1c0 .8-2.7 2.9-6 4.7-7 3.7-11.5 5-11.5 3.4 0-1 1.8-2.3 10.9-8.3 3.1-2 6.6-1.9 6.6.2zm-91.6.6c11.6 4.6 12.4 18.7 1.5 23.9-4.7 2.2-9.8.9-14.2-3.6-5.6-5.7-5.4-13.1.4-17.7 1.9-1.5 4.4-3 5.6-3.4 1.3-.3 2.4-.6 2.5-.7.2-.1 2 .6 4.2 1.5zm130.8 3.3c5.6.7 9.6 2 17.7 5.9 9.6 4.7 17.6 10.6 17.6 12.9 0 .5-3 1.5-6.6 2.2l-6.6 1.2-4.1-3.9c-2.3-2.1-7.4-5.1-11.2-6.7-6.4-2.7-8.1-3-18.5-3-14.8 0-21.1 1.9-29.5 9-11.6 9.9-14.7 15.9-14.8 29.2-.1 6.1.3 7.8 2.2 10.4 2 2.6 2.1 3 .5 2.7-3.1-.6-5.9-7.6-6.2-15.9-.4-6.7 0-8.5 2.8-15.1 2.5-6.1 4.4-8.9 9.9-14.3 9.9-9.7 13.2-11.4 27.3-13.9 8.9-1.7 10.4-1.7 19.5-.7zm-60.7 8.6c0 2 5.6 2 10.5 0 4.4-1.9 3.9-.5-1.6 4.3-2.1 1.9-5.1 6.3-7.5 11.4-3.6 7.8-3.9 8.9-3.9 17.3 0 9.4 1.3 13.3 5.8 18.2 1.7 2 1.8 2.3.4 2.3-2.4 0-6.4-4.8-8.8-10.7-2.2-5.4-4.3-6.9-7.9-5.8-4.6 1.5-7.1 13.3-4.2 20 .7 1.6 4.2 5.5 7.8 8.5 3.6 3 9.8 8.3 13.7 11.8 4 3.4 10 8.5 13.5 11.3 6 4.9 8.3 8.1 4.3 5.9-2.9-1.5-5.8-1.2-6.5.7-.7 1.8 1.7 4.3 4.1 4.3.7 0 1.3.4 1.3 1 0 3.3-24.1-2.1-26.5-6-.9-1.4 1.6-1.2 6.4.5 9.9 3.5 9.4-3.8-.6-8.9-4.4-2.2-5.3-2-5.3.9 0 1.4-.2 2.5-.5 2.5-1.7 0-11.6-7.3-13.8-10.2-3.5-4.5-6.1-15.8-3.7-15.8.5 0 1.7 1.6 2.5 3.6 2 4.8 6.9 9.8 8.9 9.1 2.7-1 1.8-4.7-2.3-9.6-5.3-6.3-6.8-9.7-8.1-17.5-1.2-7.5-.6-12.3 2-17.5 1.6-3.3 1.8-3.4 2.4-1.3 1.2 3.7 5.9 2.9 9.4-1.6 3.1-4 6.2-12 6.2-16.2 0-8-9.2-6-20.9 4.6-2.3 2-4.4 3.5-4.7 3.2-.7-.7 2-3.5 11.1-11.5 10.5-9.3 16.5-12.4 16.5-8.8zm276.2 4.2c6 5.9 6.9 7.9 4.2 9-1 .4-3.1-.9-6-3.8-3.9-3.8-4.6-4.2-5.9-2.8-1.3 1.3-1.1 1.9 2 5.2 3.8 4 4.4 6.4 1.9 7.4-1 .4-3-.8-5.5-3.3-3.6-3.6-4-3.7-5.6-2.2-1.5 1.6-1.4 2 2.5 6.2 4.1 4.4 4.7 7.6 1.6 7.6-2.2 0-11.4-9-12.1-11.7-.5-2.1.6-3.7 6.8-9.9 4-4.1 8-7.4 8.8-7.4.9 0 4.1 2.6 7.3 5.7zm-367.8 1.9c.9.3 1.6 1.7 1.6 3 0 2-.5 2.4-3.3 2.4-3.4 0-5.7 1.5-5.7 3.7 0 2 2.5 1.6 7.9-1.4 4.2-2.4 5.2-2.6 7.4-1.6 1.4.7 3.3 2.3 4.1 3.5 3.4 5.2-2.9 14.8-9.7 14.8-4.1 0-6-1.3-5.5-3.6.2-1.4 1.3-2 4.6-2.2 4.6-.3 7.5-3.3 5.2-5.6-.8-.8-2.3-.4-6.1 1.6-5.6 3.2-7.6 3.4-10.7 1.2-5.6-3.9-.1-15.9 7.5-16.3.6-.1 1.8.2 2.7.5zm85.6 7c0 2.9-6.4 13.4-8.2 13.4-2.8 0-3-1.7-.9-6.5 3.3-7.4 9.1-11.8 9.1-6.9zm294.8 6.1c.2 1.1-.6 4.9-1.7 8.4-1.2 3.4-2.1 6.6-2.1 7.1s2.1-.7 4.6-2.7c5.5-4.2 8.4-4.6 8.4-1.1 0 1.7-2.1 3.9-8.6 9-9 6.8-11 7.7-12.1 5-.6-1.6 1.4-11.5 2.9-14.7 1.7-3.3 0-3-4.4.7-4.7 4.1-7.3 4.3-7.3.6 0-1.8 1.9-4 7.9-8.8 8.3-6.6 11.8-7.6 12.4-3.5zm-266.4 2c.8 1.6 1.9 4.6 2.5 6.9 1.7 6.3 4 7.7 12.3 8 7 .3 12.8-1.4 12.8-3.6 0-1.3 5.4-4 7.8-4 1.1 0 3.2 1.6 4.7 3.5 1.9 2.6 3.2 3.4 4.5 3 3-.9 6 1.2 6 4.2v2.6l-2.4-2.2c-2.9-2.7-4.5-2.1-3.8 1.4.6 3.2-1.1 3.2-2.6 0-2-4.3-7.8-2.8-6.7 1.8 1.1 4.1-.6 5.6-1.9 1.7-1-3.1-1.4-3.3-6.1-3.4-2.7-.2-6.5-.9-8.2-1.6-3-1.3-3.4-1.3-4.8.5-1.9 2.6-1.9 4.4.2 6.7 1.9 2.1 1.1 2.2-3.9.5-5-1.8-5.3-2.2-2.9-4.6 1.2-1.2 2.1-2.5 2.1-3.1 0-1-2.9-2.7-4.5-2.5-5.2.6-7.9 2.1-11.2 6.2l-3.8 4.6-.6-2.9c-1.1-4.9-1-12.5.3-16.8 1.2-4.3 5.3-9.6 7.5-9.6.7 0 1.9 1.2 2.7 2.7zm-56.5 2.3c2.4 1.1 5.1 2 6.1 2s2.6.7 3.5 1.6c2.1 2.1.6 4-4 4.8-3.1.6-3.4 1-2.9 3.1s.1 2.5-5.1 3.9c-5.9 1.8-7.8 3.9-5.2 5.9.9.7 2.1 2.4 2.6 3.9 1.4 3.6 4.8 3.8 5.7.3 1.5-6 6.7-5.3 7.8 1.2.3 2.1.9 4.8 1.2 6 .5 1.8 0 2.5-2.2 3.5-1.6.6-4.2 2.5-5.7 4.1-2.7 2.8-3.1 2.9-8.5 2.3-6.5-.8-6.9-1-5.2-3.1 1-1.2 1-1.5-.3-1.5-3 0-2.7-1.8.8-3.9 3.9-2.3 4.3-3.6 1.8-6.3-2.6-2.9-6.2-2.3-7.4 1.2-1.3 3.6-3.7 3.9-8.5.9-2.1-1.2-3.4-2.9-3.4-4.1 0-1.8.4-2 3.2-1.4 2.4.5 3.4.2 4.5-1.4.8-1.1 2-2 2.8-2 .8 0 2-1.2 2.7-2.8.9-1.8 2.2-2.8 4.1-3 3.4-.4 3.8-3.9.5-4.4-2.1-.3-2.1-.4-.4-2.1 1.2-1.2 3.3-1.7 7-1.7 5.7 0 6.7-.5 6-2.5-.4-.9-1.6-1.2-4-.8-1.9.3-4 .1-4.8-.6-1-.8-2.1-.9-4.2-.1-3.2 1.3-5.4.7-5.4-1.4 0-3.6 10.3-4.5 16.9-1.6zm-71.8 1.6c1.6 2-.1 5-2.6 4.6-2-.4-5.5 2.5-5.5 4.5 0 2.1 2.5 1.5 6.5-1.7 5-4 9.5-4 12.5-.3 2.9 3.7 2.1 8.6-2.2 13-3.5 3.6-8.6 4.5-10.8 1.8-2-2.4-.4-4.5 3.3-4.5 3.8 0 6.1-1.9 5.5-4.6-.5-2.8-2.2-2.6-6.3.6-8.8 7-17 .7-11.9-9.1 1.4-2.7 6.1-5.8 9-5.9.6 0 1.7.7 2.5 1.6zm410.7 16c6.3 4.4 7 15.4 1 15.4-2.4 0-3.1-2-1.9-5.1 1.1-2.9-.2-5.9-2.6-5.9-1.2 0-1.4.7-.8 3.2 1.9 9.6 1.8 11.4-1 13.7-1.5 1.1-3.8 2.1-5.1 2.1-5.1 0-11.5-9-9.9-14 .9-2.9 3.3-5 5-4.4 1.6.7 2.1 4.9.6 5.8-1.4.9-.1 4.6 2.1 5.7 3.1 1.7 4.2-.2 2.9-4.7-1.8-6.3-1.4-10.1 1.1-11.8 2.8-2 5.8-2 8.6 0zm-314 4.6c1 1.8 6 6.7 11.3 10.9 8.4 6.7 34.8 33.4 41 41.3 2.4 3.1 4.9 12 4.9 17.6-.1 6-8.6 17.2-15.9 20.9-8.5 4.3-27 5.8-40.2 3.3-6-1.1-17.6-5.9-16.6-6.8.3-.3 4.9.9 10.3 2.6 21.3 6.8 36.8 4.6 47.5-6.7 4.7-4.9 6.3-10 5.5-17-.9-7.9-2.5-10.9-10.4-19.3-6.9-7.3-12.3-12.2-31-27.6-5.1-4.2-9.9-8.9-10.8-10.6-1.5-3-1.2-7.2.8-11.1 1.1-2.2 1.4-2 3.6 2.5zM111.3 189c11.4 1.7 11.7 1.8 11.7 4.4 0 2.7-1.5 3.6-5.1 2.9-2.1-.4-2.8.2-4.4 3.1-1.9 3.5-1.9 3.7-.1 6.6 1.4 2.5 1.5 3.4.6 4.5-.7.8-1.8 1.5-2.4 1.5-1 0-13.8-15-16-18.7-.4-.7-.2-2.2.4-3.3 1.2-2.3 4.4-2.5 15.3-1zm435.3 16.5c3.9 7 4.4 10.5 1.4 10.5-1.4 0-2.7-1.5-4.5-5-2.6-5.2-3.1-5.5-5.4-4.1-1.1.7-1 1.5.8 4.5 2.4 3.9 2.5 8.1.1 8.1-.8 0-2.5-1.9-3.8-4.3-2.4-4.2-3.6-4.9-6-3.3-1.1.6-.7 2 1.4 6.4 2.1 4.3 2.5 6 1.7 6.8-.7.7-1.8.9-2.6.6-1.8-.7-9-14.5-8.4-16.1.7-1.8 17.8-10.6 20.1-10.3 1.2.1 3.2 2.5 5.2 6.2zm-370.5 13.6c6.5 4.6 11.9 13 11.9 18.3 0 2.3-.4 2.5-3.7 2.3-3.5-.2-3.8 0-4.1 2.8-.7 5.6 4.1 19.7 9.8 29.3 2.2 3.6 3.8 6.8 3.5 7-1.2 1.2-7.7-4.5-13.1-11.3-4.4-5.6-6-9.2-9.9-21.4-3.1-9.8-4.8-12.7-8.8-14.8-9.9-5.1-30.4 9.9-32.3 23.7-1 7.3.8 12.1 5.9 15.2 2.4 1.6 5.3 2.8 6.5 2.8 2.6 0 3.7 1.6 1.6 2.4-4.3 1.7-11.7-1.4-17.1-7-3.2-3.3-6.6-4.4-7.8-2.4-.3.5-.7 3.1-.9 5.7-.1 2.7-.7 4.7-1.2 4.7-1.8-.2-3.4-4.9-3.4-10 0-4.4.5-5.6 3.6-9.2 2-2.4 4.1-4.2 4.7-4.1 2.8.3 3.6-.3 4.7-3.7 1-3 1-3.9-.3-5.1-1.3-1.4-1.9-1.2-5.1 1.3-2 1.6-3.6 3.2-3.6 3.6 0 .5-.4.8-1 .8-2.1 0-.8-2.4 4.5-8 4.1-4.2 6.8-6.1 10-7 5.1-1.4 8.5-4.3 8.5-7 0-2.6-4.7-2.7-6.6-.3-1.2 1.7-1.3 1.7-1.4-.3-.1-7.5 19.3-11.1 30-5.5 2.3 1.2 4.7 2.1 5.5 2.1 1.7 0 2.1-4.5.5-5.5-.5-.3-1-1.1-1-1.7 0-1.5 6.9 0 10.1 2.3zm96.1 1.9c17.5 3.8 26 11.2 27.5 23.9.8 6.7-.9 7-3.7.8-3-6.7-5.7-9.7-9-9.7-5.3 0-6.4 4.1-3 11.5 2.1 4.7 4.8 6.2 7.8 4.6 1.7-.9 2-.6 2.6 2.1 1.4 7.1.2 17.8-2.2 18.6-.8.2-1.2-1.2-1.2-5.1 0-3.9-.6-6.2-1.9-7.8-1.8-2.2-1.9-2.3-4.6-.5-3.3 2.2-8 11.7-6.2 12.8.6.4 2.2.1 3.4-.7 6.2-4.1 4.7-.1-3.4 9.3-9.9 11.3-26 21.7-32.6 21-3.1-.3-3.1-.3 1.8-2.2 4.6-1.8 10.9-5.6 16.8-10.3 2.9-2.2 4-5.2 2.8-7.2-.8-1.2-2.1-1.1-8.8.8-8.7 2.6-12.3 4.5-12.3 6.5 0 .8 1 1.7 2.3 2 3.8 1.1-.2 2.5-10.2 3.5-8.6.9-10.7.8-23.9-1.6-1.8-.3-3.5-1-3.9-1.6-.4-.7 2.7-.8 9.4-.5 10.7.6 12.7.2 12.1-2.8-.2-1.4-1.6-2.1-5.3-2.6-7.7-1.2-12-1.1-14.2.3-1.9 1.1-2.8.7-8.6-4s-8.8-8.1-7.1-8.1c.3 0 2.4 1.3 4.7 2.8 5.3 3.6 6.5 4 16.2 5.8 16.7 2.9 24 2.9 35.5-.1 9.8-2.6 16.9-6 19.7-9.5 2.8-3.3 7.3-13.5 7.3-16.4 0-1.7-1-7.1-2.2-12-2.2-8.5-2.6-9.3-9-16.2-6.2-6.6-8-9.4-6-9.4.4 0 4.6.9 9.4 2zM227 250.2c0 3.4 1.5 5.2 3.8 4.6 1.6-.5 2.3.2 3.6 3.4 1.3 3.5 1.9 4 3.8 3.4 6.9-2 7.8-1.9 7.8.2 0 1.6-.9 2.4-3.2 3-3.8.9-4.4 3.5-1 4 3.6.5 2.7 3.2-1.1 3.2-2.4 0-3.5-.6-4.2-2.3-.6-1.2-2.1-2.4-3.4-2.5-1.3-.2-2.6-1.2-2.8-2.3-.4-1.5-1.4-1.9-4.9-1.9-4.7 0-5.8-1.6-2.9-4 1.1-.9 1.3-1.6.6-2.3-.7-.7-1.6-.5-2.9.6-1 .9-2.4 1.7-3 1.7-2 0-1.3-3.9.9-5.8 1.1-.9 3-2.5 4.1-3.5 2.9-2.3 4.8-2.1 4.8.5zm-97.3 26.5c2.2 1.7 5.4 3 8.7 3.4 2.8.4 6.8 1 8.8 1.4 5.6 1.1 8.6 0 9-3.3.3-2.4.8-2.7 4.2-3 4-.3 9.6 1.4 9.6 2.9 0 .5-.8.9-1.9.9-3.8 0-8.1 2.2-8.1 4.1 0 2.5 3.9 2.5 12.6.2 5.4-1.5 7.3-1.5 12-.5 5.4 1.1 8.4 2.6 8.4 4.2 0 .4-1.5.5-3.2.1-3.8-.9-8 0-8.5 1.6-.3.7 1.4 2.1 3.7 3.3 3.4 1.7 5.1 2 9.6 1.4 4.9-.6 6.2-.3 11.9 2.5 5.8 2.9 13.3 9.6 12.1 10.8-.3.3-2.1-.6-4-2.1-3.9-2.9-5.8-3.2-7.5-1.2-.8 1-.4 2.2 1.8 5.3 2.6 3.6 3.2 3.9 6.5 3.5 3.5-.4 3.7-.3 5.8 4.4 2 4.6 3.8 18.4 2.4 18.4-.4 0-1.5-2-2.6-4.5-3.5-8.1-7.2-6.9-8.4 2.7-.9 6.7-4.7 14.1-8.1 15.6-3.7 1.7-3.8 1.6-1.5-2.8 1.1-2.1 2-4.4 2-5 0-1.6-3.4-.4-8.3 3-3.9 2.6-18.8 10-20.1 10-.3 0-.6-1.2-.6-2.6 0-2.1-.4-2.5-1.7-1.9-10.9 4.3-18.7 5.4-21.8 3.2-1.6-1.3-1.3-1.4 3.1-2 6.4-.7 12.6-2.9 13.2-4.5.5-1.6-4.3-1.6-10.2 0-3.6.9-4.8.9-6-.1-2.4-2-1.9-2.9 1.7-3.3 3.6-.3 4.5-3.1 1.2-3.6-4.1-.6-6.5-2.5-6.5-5 0-2.3.1-2.4 1.8-.9 2.2 2 6.3 3 8.1 1.8 1-.6 1.1-1.7.6-3.7-1.2-4.6-1-10.1.4-11.8 2-2.4 13-8.3 16.8-8.9 2.3-.5 3.8-.1 5.5 1.4l2.3 1.9-2.5-.5c-1.6-.3-4.3.5-7.5 2.2-6.3 3.5-8.8 7.9-8.2 14.6 1.1 13 13.5 17.2 29.1 9.9 7-3.3 10.4-6.5 12.3-11.5 1.4-4 1.6-10.8.3-14.2-1.4-3.6-10.1-12.6-14.2-14.7-20.4-10.2-22-10.8-27.7-11.4-9.8-.9-32.8-5.1-35.6-6.6-2.9-1.4-7.4-7.8-5.5-7.8.6 0 2.7 1.2 4.7 2.7zm173.4 3.7c1.5 1.3 3 3.2 3.3 4.4.4 1.2 1.9 2.3 3.6 2.7 3 .7 4.3 2.6 3.4 5-.8 2-4.4 1.9-4.4-.1 0-1.1-.6-1.4-2-.9-2.1.7-2.3.3-3.4-4.8-.8-3.4-3.2-4.5-5.4-2.4-1.4 1.4-1.4 2-.2 4.2 1 1.8 1.1 2.8.3 3.6-3 3-4.6-4.5-2-9.2 3-5.8 3.1-5.8 6.8-2.5zm-13.7 9.1c.9 1.3 1.6 3.7 1.5 5.2v2.8l-1.6-2.3c-2.1-3-2.9-2.8-5.8 1.8-1.6 2.5-3.3 4-4.6 4-1.1 0-3.6 1.7-5.4 3.7-4 4.4-4.6 6.8-1.4 5.8 1.5-.5 2-.3 1.7.6-.8 2.5-4.4 2.1-7.5-.8l-3.1-2.8 4.2-2c5-2.5 6.2-6.1 2.2-7.1-1.4-.3-2.6-1-2.6-1.5 0-1.3 3.4-1.1 4.7.2 1.9 1.9 7.7 0 9.8-3.2 1.1-1.6 2.3-2.9 2.8-2.9.4 0 .7-.9.7-2 0-2.8 2.4-2.5 4.4.5zM83.6 310.2c8.2 9 5.4 22.4-5.5 25.7-5.3 1.5-7.9 1.4-12.8-.8-10.5-4.8-11.1-20.8-1.1-27.2 2.7-1.6 4.6-1.9 9.7-1.6 5.8.3 6.6.6 9.7 3.9zm485.2-2.8c9.1 4.7 11.6 15.4 5.5 23.5-6.1 8-19.3 7.9-25.4-.2-3.2-4.3-3.4-14.2-.4-18.3 4.4-5.8 14.1-8.2 20.3-5zM176.1 501.1c6.5 4.6 7.9 6.6 7.9 11.3 0 7.9-7.7 15.5-14.3 14.2-4.6-.9-12.7-6.7-12.6-9.1 0-2.1 12.3-19.5 13.8-19.5.4 0 2.8 1.4 5.2 3.1zm283.7 4.8c.8.4 1.2 1.9 1 3.2-.3 2.1-.8 2.4-4.8 2.4-3.6 0-4.5.4-4.8 1.9-.3 1.6 0 1.8 2.5 1.2 1.5-.4 4.9-.9 7.4-1.3 4.1-.5 4.8-.3 6.7 2.2 3 3.8 2.7 6.9-1.1 11.1-4 4.4-10.5 5.8-13.7 2.9-2.4-2.2-2.5-3.8-.5-5.5 1.3-1.1 2-1 4.1.1 3.1 1.6 5.7.3 6.2-3.1.3-1.8 0-2.2-1.5-1.7-8.5 2.8-10.2 3-12.8 1.9-7.9-3.6-2.5-16.1 7-16.2 1.7 0 3.6.4 4.3.9zM198 515.8c4.5 2.6 6.5 4.4 6.5 5.7 0 3-3 3-8.1 0-3.1-1.8-4.9-2.4-5.6-1.7-1.5 1.5-.2 2.9 4.3 5.2 2.6 1.4 3.9 2.7 3.9 4.1 0 3.2-2.6 3.3-7.6.4s-4.9-2.9-5.8 0c-.5 1.6.4 2.5 4.4 4.8 5.1 2.9 6.6 5.9 3.4 7.1-2.6 1-16.4-7.3-16.4-9.9 0-.7 2.3-5.4 5.2-10.4 3.9-6.9 5.7-9.1 7.2-9.1 1.2 0 5 1.7 8.6 3.8zm248.7 7.7c5.7 9.7 6.5 13.8 2.7 14.3-1.7.2-2.9-.9-5.7-5.5-6.5-10.8-8.2-15-6.7-16.8 2.3-2.8 4.2-1.2 9.7 8zm-17.7.2c1.4.9 2.7 2 3 2.3.3.4 3.3 3 6.8 5.9 6.3 5.2 7.8 8.5 4.5 9.8-.9.4-2.9-.1-4.5-1-2.7-1.5-3.1-1.5-6.3 0-3.1 1.5-3.5 2.1-3.5 5.6 0 3.6-.2 3.8-2.7 3.5-2.6-.3-2.8-.7-3.4-5.8-1.9-16.5-2-18.8-.3-20.4 2-2 3.4-2 6.4.1zm-205.1 5.7c1.4 1.7 1.3 22.2-.1 24.9-.6 1.1-1.8 1.7-3.1 1.5-1.7-.2-2.3-1.1-2.5-3.9-.3-3.2-.8-3.8-4.2-5.2-3.6-1.4-4-1.4-5.6.4-2.3 2.6-5.8 2.1-6.2-.9-.3-1.7 1.6-4.1 8-10.2 8.3-7.9 11.4-9.4 13.7-6.6zm190 2.8c1.1 1.7 3.4 6.5 5.2 10.6 2.5 5.6 3 7.8 2.2 9.1-2.2 3.4-4.6 1.8-8.2-5.6-3.5-6.9-3.7-7-5.2-5s-1.6 2-4.6.2c-6.7-3.9-11.6 1.8-7.6 8.8 3.3 5.6 10.3 4.6 10.3-1.5 0-2.6.3-2.9 2.8-2.6 2.2.2 2.8.8 3 3.6.3 2.6-.3 3.9-3.1 6.7-3.1 3.1-4.1 3.5-8.5 3.5-4.3 0-5.5-.5-8.1-3.1-1.7-1.7-3.5-4.5-4-6.2-.6-2.2-.9-2.5-1-1.2-.1 1.2-.6 2.6-1.3 3.3-.9.9-.5 2 2.1 4.6 6.7 6.9 1.1 10.5-5.7 3.7-5.7-5.7-7.2-5.4-6.9 1.1.2 5.1.1 5.3-2.5 5.6-2.2.3-2.8-.2-3.2-2-.3-1.3-1.2-5.4-2.1-9.1-1.8-8.3-1.9-12.1-.2-13.4.6-.6 4-1.5 7.4-2.2 6.6-1.3 9.4-.6 12 2.8 1.1 1.4 1.2 1.3 1.3-.6 0-1.3 1.3-3.7 2.8-5.4 3.8-4.3 11-5.2 15.3-2 3.2 2.4 3.3 2.3 1.9-1.3-2.2-5.8 2.7-7.8 5.9-2.4zm-170.8 4.3c3.5 1.4 10.7 3.5 15.9 4.6 5.2 1.2 10 2.5 10.7 3.1.7.5 1.6.8 2 .5 1.6-1 16.7 2.3 17.6 3.8.7 1.3 1.1 1.3 3.7 0 3.7-1.9 7.3-1.9 11.1.1 3.4 1.7 5.1 5.1 3.7 7.6-1.3 2.5-3.5 2.2-5.4-.7-1-1.5-2.6-2.5-4-2.5-3.8 0-2.8 1.9 2 4 8.6 3.7 10.8 8.4 6.2 13.7-2.1 2.5-3.1 2.8-8.1 2.8s-6-.3-8.1-2.8c-2.7-3.2-3.1-5.9-1-7.6 1.8-1.5 3.9-.6 5.1 2.2.7 1.6 1.9 2.2 4 2.2 4.5 0 3.8-2.7-1.2-4.5-5.6-2.1-8.3-4.7-8.3-8.2 0-2.1-.5-2.8-1.9-2.8-1 0-4-.3-6.6-.6-4.2-.6-4.7-.5-4.3 1.1.2 1.4 1.7 2.2 5.3 3 3.6.7 5.1 1.5 5.3 2.9.6 2.7-1.3 3.4-6.1 2.5-6.3-1.2-6.7-1.1-6.7 1.5 0 2.2.5 2.5 5.5 3.1 5.7.8 8.1 2.4 7.1 5-.6 1.8-5.5 1.8-13.6.2-6.6-1.4-6.9-2.4-4.7-14.1l1.5-7.6h-2.3c-1.3 0-3-.3-3.8-.6-1.1-.4-1.9 1.2-3.1 6.8-2.4 10-3.2 11.8-5.6 11.8-3.1 0-3.5-2.6-1.7-11.4 1-4.5 1.7-8.4 1.7-8.9 0-1.7-3.9-.5-5.4 1.7-.8 1.4-2.4 2.7-3.5 3.1-1.7.5-1.9 1-1.1 3.1 1.7 4.5 1.2 8.2-1.2 9-2.4.7-4.8-1.7-4.8-4.9 0-2.3-2.9-8.7-4-8.7-.4 0-1.4 1.8-2.3 4-1.8 4.6-4.2 6-6.4 3.7-1.4-1.3-1.2-2.5 1.7-11.4 1.8-5.4 3.7-10.4 4.3-11.1 1.4-1.8 3.5-1.5 10.8 1.3zm112.1 9.7c3.1 2.4 12.9 18.9 12.6 21.1-.4 3.2-3.8 3.4-6.3.3-1.7-2.2-2.6-2.5-5.8-1.9-3.1.5-3.8 1.1-4.5 3.7-.9 3.5-3.9 4.7-5.8 2.2-.9-1.3-.7-4 1.2-12.9 2.2-10.2 3.8-13.7 6.4-13.7.3 0 1.3.6 2.2 1.2zm-14.9 2c1.3 1 1.8 3.7 2.3 13.1l.7 11.9-2.9-.4c-2.4-.2-3-.8-3.5-3.8-.6-3.6-1.2-3-2.3 2.2-.5 2.1-1.2 2.8-3.1 2.8-2.6 0-3.2-.7-5.7-6.5l-1.7-4 .2 4.9c.1 3.6-.2 5.1-1.5 5.9-1.3.9-2 .9-2.9 0-1.2-1.2-3.3-21.8-2.4-24.1.2-.7 2.2-1.2 4.4-1.2 3.9 0 4.1.1 5.8 5 1.8 5 3.3 6.5 3.3 3.2 0-7.7 4.8-12.3 9.3-9z"/><path d="M310.2 76.2c.3 7 .4 7.3 2.9 7.6 3.8.4 5.9-2.2 5.9-7.2s-2.2-7.6-6.4-7.6h-2.7l.3 7.2zM251 84c0 1.9.5 3 1.4 3 2.2 0 2.8-1.7 1.4-4-1.8-2.8-2.8-2.5-2.8 1zM274.2 73.2c-2 2-1.5 9.5.8 11.8 4 4 10 1.3 10-4.4 0-2.9-1.6-6.6-3.4-7.8-1.7-1.2-6.1-.9-7.4.4zM364 76c-3.6 3.6-2.2 12.4 2 13.1 4.5.8 8-3.2 8-9.1 0-5.3-6.2-7.8-10-4zM203.3 102c.4 1.4.7 2.8.7 3.2 0 .3.9.4 2 .1 2.5-.7 2.2-2.1-1-4.2-2.3-1.5-2.3-1.5-1.7.9zM459.5 300.6c-9.2 2.8-18.6 6.3-19.9 7.6-.6.4-1.8.8-2.8.8-1.7 0-1.6-.4.8-4.5 1.4-2.5 2.4-4.8 2.1-5.1-1.1-1.1-8.3 3.6-11.1 7.1-1.5 2-3.4 6.1-4.1 9.2-1.4 6.1-2.6 7.8-4.9 7-1.7-.7-3.5-6.5-3.7-11.7l-.1-3.5-1.9 4c-1.6 3.3-1.9 5.5-1.6 12.1.6 10.6 2.5 14.4 7.2 14.4 2.8 0 3.7.5 5 3 3.6 7 .2 8-6.4 1.9-2.4-2.2-4.5-3.8-4.7-3.6-1.1 1 2.9 7.7 6.5 11 7.7 6.9 11.5 8.9 17.3 8.9 3.6-.1 6.3.6 8.5 1.9 6.5 4.1 2.6 6.6-5.2 3.3-2-.8-3.9-1.3-4.1-1.1-.3.3.7 1.8 2.1 3.6 3.9 4.6 10.4 6.2 22.1 5.4 8-.5 9.4-.4 9.4.9 0 1.9-2.9 2.8-8.7 2.8-2.4 0-4.3.3-4.3.7 0 .5 2.7 2.1 6 3.8 4.9 2.4 6.4 2.7 8.7 1.9 1.7-.6 2.9-1.8 3.1-3.2.4-2.7 4.4-3 11.2-.7 2.5.8 5.8 1.7 7.3 2 1.6.3 5 2.6 7.6 5 5.4 5.1 6.5 5.5 5.6 2.2-1.8-6.3-3-7.9-7.5-10.2-4.4-2.2-19.9-7.3-29.5-9.7-10.3-2.6-11.4-3.3-30-16.5-6-4.3-12.5-14.6-12.5-19.7 0-4.3 2.7-10.5 6.2-14.3 2.5-2.7 14.8-7.3 19.6-7.3 10 0 16.6 4.6 17.7 12.3 1.3 8.2-4.3 15.5-13.2 17.2-3.1.6-4 .3-5.6-1.7l-1.9-2.3.7 3c.3 1.6 1.3 3.6 2 4.4 2.3 2.4 9.4 1.7 16.9-1.6 8.2-3.7 9.9-6.1 9.4-13.6-.3-4.6-.1-5.2 1.8-5.5 2.8-.4 6.5 2.8 8.1 6.9 1.2 3.3 1.2 3.2 1-2.6-.2-5.8-.3-6.1-3.9-8-2.1-1.1-3.8-2.3-3.8-2.7 0-.4 1.9-.8 4.1-1l4.1-.3-1.9-2.4c-1.7-2.1-2.6-2.3-9.3-2.2-6 .1-7.2-.1-6.2-1.1.9-.9 4.3-1.3 10.2-1.3 9.5 0 10.2-.8 3.6-4.2-2.9-1.5-10-1.4-18.6.4-3.7.7-4.1-1.7-.7-4 3-2.2 1.6-2-7.8.9zM362 327.9c-2.8.8-3.5 3.8-.7 3.3 2.4-.4 2.1.5-1.1 3.8-1.6 1.6-4.7 3.3-6.9 3.9-2.7.7-4.3 1.9-5.1 3.6-1.4 3-3.8 3.3-4.7.4-.9-2.7-2.9-1.9-3.3 1.4-.4 2.9 2.3 8.7 3.9 8.7.7 0 2.9-2 5.1-4.5 4.3-4.9 8.5-6 11.9-2.9 1.1 1 2.5 1.3 3.8.9 3-.9 2.6-2.4-.9-3.6-1.6-.6-3-1.4-3-1.8 0-1.5 3.7-4.1 5.7-4.1 3.2 0 5.3-1 5.3-2.6 0-.8-.7-1.4-1.5-1.4s-2.1-1.4-3-3c-.9-1.7-1.9-3-2.3-2.9-.4.1-1.8.4-3.2.8zM318.2 342.2c-.7.7-1.2 2.4-1.2 3.9 0 2.1.6 2.8 2.9 3.2 1.9.4 3.2 1.4 3.7 2.9 1.1 3.6 4.6 7.8 6.5 7.8.9 0 2.8-1.8 4.3-3.9 2.1-2.9 2.7-4.9 2.4-7.7-.3-3.9-.6-4.1-4.8-3.5-1.4.1-1.3 3.4.1 4.8.9.9.8 1.5-.3 2.6-2.1 2.2-3.6.8-4-3.8-.2-3.3-.7-4.1-2.5-4.3-1.3-.2-2.3-1-2.3-1.8 0-1.7-3.1-1.9-4.8-.2zM376 344.4c-10.5 4.4-16.5 7.9-23 13.3-9.9 8.3-14.9 16.4-7.9 12.8 1.7-.9 3.7-1.5 4.5-1.3 2.1.4-4.4 9.7-7.3 10.4-3.9 1-4.6-.3-4-8.2.3-4.1.2-7.4-.3-7.4-1.4 0-4.6 5.2-5.8 9.6-1.6 5.7-1.5 12.6.3 15 1.3 1.8 1.4 1.8 1.5.1 0-3.2 4.3-1.6 6.2 2.3 3.2 6.6 1.9 12-2.9 12-2.8 0-4.9-3.1-7.3-10.7-2.4-7.9-4.4-7.7-4.8.4-.6 13.6 6.5 21.9 24.5 28.5 5.8 2.1 10.8 3.6 11.1 3.3.8-.8-2.1-6.1-6.9-12.6-3.5-4.8-4.3-6.9-5.5-14-2-12.2-1.8-14.8 1.4-19.5 8.2-12.3 12.3-14.5 30.4-16.4 10.4-1.1 12.3-1 17.5.5 21.7 6.3 27.4 8.8 32.2 13.9 2.9 3.1 4.1 3.3 4.1.7 0-1-2.9-4.9-6.4-8.7l-6.4-6.7-3.2 1.3c-2.4 1-3.9 1.1-6.4.2-1.7-.6-5-1.6-7.3-2.2-4.2-1-5.6-3.1-3.2-4.6 1-.6 3.3-.2 16.7 2.7 2.4.5 5 .6 5.8.1 1.8-1-.3-2.1-11.1-5.9-9.1-3.2-26.2-4.2-31.5-1.9-2.5 1.1-2.9 1.5-1.4 1.6 1.1 0 2.8.6 3.8 1.3 1.5 1.1 1.5 1.5.4 2.4-1.4 1.2-17.8 4.3-19 3.6-1.7-1-.6-4.3 2-6.1 4.7-3.3 14.4-7.4 20.5-8.5 5.2-1 5.7-1.2 4.1-2.4-2.7-2-9.2-1.5-15.4 1.1z"/><path d="M377.4 365c-7.2 1.1-13.6 4.2-19.3 9.5-6.5 6.1-7.4 8.5-6.9 19.2.3 8.4.5 9.1 4.2 14.3 2.1 3 6.4 9 9.5 13.5 8.2 11.9 16.2 21.9 25.1 31.2 5.6 5.9 8.2 9.4 9 12.3 1.4 5.3 3.6 5.1 6.1-.6 3.4-7.5 2-10-13.6-26.4-10.4-10.8-19.2-21.6-25.6-31-3.9-5.8-4.4-7.2-4.7-13.3-.5-8.6 1.3-13 7.4-18.1 7-5.8 10.6-7 21.4-7 10.8 0 18.8 2.1 29.5 7.9 10.2 5.5 13 4 3.7-2.1-11.3-7.4-31.2-11.5-45.8-9.4zM433.7 371.2c.6.7 2.6 4.9 4.6 9.3 6.1 13.6 8.3 33.5 3.7 33.5-1 0-2.3-.7-3.1-1.6-1.1-1.4-1.4-1.3-2.6 1-2.5 4.7 1.6 15.3 8.4 21.8 4.6 4.4 8.6 6.1 12.6 5.2l2.9-.6-2.3-1.2c-2.4-1.1-4-5.6-2-5.6.5 0 3.1 1.3 5.8 2.9 13 7.8 29.8 6.1 31.9-3.4l.7-3-2.6 2.3c-2.4 2.3-6.7 2.4-6.7.2 0-1.6 3.1-4 5.8-4.5 7.3-1.5 10.1-2.8 15.2-6.9 4.9-4.1 8.8-9.2 7.8-10.2-.2-.2-3 1.5-6.1 3.7-3.1 2.2-6.1 3.8-6.7 3.4-2.8-1.7.8-9 4-8 1.2.4 3.1-.5 5.5-2.6 6.3-5.6 7.8-10.8 5.3-19-1.8-6.2-2.6-5.3-5.2 6.3-.9 4.1-2.9 3.4-7.8-2.3-4.8-5.8-10.2-8.9-15-8.9-5.6 0-6.7 1.6-2.1 3 2.2.7 5.7 2.6 7.7 4.4 3.2 2.6 3.9 3.9 4.3 7.9.8 6.4-1.7 12.6-7.1 17.5-9.2 8.5-19.7 12.4-26 9.8-4.9-2.1-6.5-5.1-8.6-16.8-2.3-12.6-3.8-17.2-8.1-24.4-3.3-5.5-12.1-14.4-14.1-14.4-.7 0-.7.4-.1 1.2z"/><path d="M384.4 374.1c-.4.7.2 1.9 1.4 3 2.8 2.2 2.8 2.9 0 2.9-3.3 0-5.1 1.4-4.6 3.6.3 1.6 1.2 1.9 5.1 1.7 4.9-.3 5-.3 6.1 4.9.5 2.1 1.2 2.8 3.1 2.8 2.2 0 2.5.4 2.5 3.4 0 1.9.6 3.6 1.3 3.9 3.2 1.1 12.7-5.1 12.7-8.4 0-2.7-2.7-3.5-5-1.4-2.4 2.2-2.7.9-.4-1.6 2.6-2.9 1.1-4.9-3.6-4.9-2.9 0-4-.4-4-1.5 0-.9-1.1-2-2.4-2.5-2.5-.9-4.5-3.6-4.3-5.5.3-1.5-7-1.8-7.9-.4zM377.2 406.3c2.1 1.2 3.8 2.8 3.8 3.4 0 2-4.4 1.5-7.3-.7-1.4-1.1-2.8-2-3.1-2-1.2 0 3.3 7.7 4.7 8.3.8.3 5.9 5.8 11.2 12.2 5.4 6.4 10.4 11.9 11.2 12.2.7.3 3.4 3.2 5.9 6.5 5.8 7.6 6.9 14 3.5 20.6-2.4 4.7-4.3 6.1-7.7 5.4-1.8-.3-2.6-1.4-3.4-4.6-2.5-9.7-5.2-13.4-10.9-14.9-1.8-.4-2.1-.3-1.2.6 2.1 2.1 1.1 3-1.4 1.3-2.9-1.9-3.1-1.5-.9 1.9 3.6 5.5 3.5 14.2-.3 23-2.8 6.6-6 10.1-14.1 15.4-9.4 6.2-15 7.5-28.6 6.9-9.2-.4-10.8-.8-17.6-4.2-9.4-4.7-13.6-7.9-15.6-11.7-1.5-3-1.5-3-9.2-2.7-7.5.3-7.7.4-7.4 2.8.5 4.3 13.1 14.9 24.9 20.8 2.1 1.1 7.4 2.7 11.9 3.7 6.9 1.5 9.7 1.6 19.7.6 12.8-1.1 17-2.7 26.5-9.9 13.2-9.9 20.2-27.8 15.8-40.1-2-5.6-1.4-6.4 1-1.4 2.6 5.1 2.6 18.1.1 24.1-2.9 7.2-9.5 15.6-15.9 20.2-6.4 4.8-6.3 5.9.7 4.1 6.4-1.6 8.6-1.4 9.2.9 1.1 4.1 6.6 2 21.5-7.9 9.6-6.3 11.8-8.4 11.8-11.3 0-.5-2.1.6-4.7 2.5-10.5 7.7-19 10.6-22.1 7.5-1.7-1.7-1.5-3.6 1.2-9.4 4.1-8.9 12.7-15.5 14.1-10.9 1.6 5 1.4 4.9 3.3 2.4 4.4-5.8 5.7-10.2 5.6-18.9-.1-9-1.1-12.1-7.1-22.3-2.3-3.9-2.6-4.9-1.4-5.6.8-.5 1.9-.7 2.5-.5 1.4.6 5.6 7.8 5.6 9.7 0 .8.8 2.5 1.9 3.8l1.9 2.3.6-4.1c.8-4.5 0-10.5-1.9-14.3-.7-1.4-3.8-4.9-6.8-7.8-5.8-5.4-9.4-6.9-8.2-3.2 1 3.1-2.4 2.5-6.8-1.1-2.4-2-3.7-3.9-3.7-5.5 0-3 .5-3 7.2.1 2.9 1.4 5.9 2.5 6.6 2.5 1.8 0-2.5-5.3-6-7.4-4.4-2.7-14.7-5.6-19.7-5.6l-4.6.1 3.7 2.2z"/><path d="M259.9 433.6c0 1.1-1.4 3-3.1 4.3-2.9 2.3-3.1 2.4-5.8.7-2.8-1.6-2.9-1.6-4 .3-2.2 4.2-.9 7 4.4 9.6 1.6.8 2.2 2.1 2.4 5.8.3 4.1-.1 5.3-2.7 8.4-3.3 4-4.1 8.3-1.6 8.3.8 0 2-.9 2.7-2 .7-1.1 1.6-2 2-2 1.5 0 .8 3.8-.7 4.4-.8.3-1.5 1.6-1.5 3 0 1.8.6 2.5 2.3 2.8 2 .3 2.2.8 1.9 5.5-.4 5-.2 5.3 5.2 11.1 3.9 4.4 5.7 7.1 6.1 9.9 1.2 7.1 1.6 8.4 2.5 7.8.6-.3 1-3.2 1-6.3 0-5.1-.5-6.3-4.1-11.5-2.2-3.1-4.5-5.7-5-5.7-1.4 0-1.1-6.4.5-8.5 1.3-1.9 1.5-1.9 5.7 0 2.4 1 5 2.3 5.7 2.8 2.1 1.7 1.3 4.6-1.8 6.2-3.2 1.7-3.8 4-1.6 7 1.3 1.7 1.4 1.7 2.7-1 .8-1.7 2.5-3.2 3.9-3.5 3.1-.7 3.8-4.7 1.6-9.2-1.9-3.7-1.9-3.8-.5-3.8 1.8 0 3.6 6.3 4.2 14.9.4 4.8 1.3 9.4 2.2 10.7 2.3 3.6 2 6.4-.9 6.4-1.7 0-2.7-.9-3.6-3-1.4-3.4-4-4-4-1 0 6.7 17 24.4 25.3 26.4 3.6.8 3.4-.6-.5-3.9-5.2-4.4-8.8-9.6-8.8-12.6 0-1.9.5-2.9 1.5-2.9 2.2 0 1.9-1-1.6-4.6-2.7-2.8-3.3-4.6-5.1-14.5-1.1-6.3-2.2-12.6-2.5-14-.9-4.7 4-4.9 5.8-.2.5 1.4 1.5 2.3 2.2 2.1 1.5-.6 2.2-4.8.8-4.8-.6 0-1.1-1.2-1.1-2.6 0-4.4 3.3-2.6 4.5 2.4.6 2.4 1.4 4.3 1.8 4.3.4-.1 1.1-.1 1.7-.1 1.6 0 3.2-4 2.6-6.5-.3-1.2-1.5-2.5-2.6-2.8-2.6-.7-2.6-3.7 0-3.7 1.2 0 2.5 1 3.1 2.4 1.5 3.3 4.9 4.2 4.9 1.3-.1-5.9-.7-6.5-10.7-9.3-1.8-.5-1.6-2.4.3-2.4 1 0 1.4-.7 1.2-2.1-.2-1.7-1.6-2.5-6.9-3.8-9.2-2.3-11.9-4.3-11.9-8.6 0-1.9-.5-3.5-1.1-3.5-.7 0-.9-1-.5-2.4.5-2.1.2-2.5-2.1-2.8-2-.2-2.7-.8-2.5-2.1.2-1.2-.4-1.7-2.1-1.7-1.3 0-4.5-.3-7.1-.6-4.1-.6-4.6-.4-4.7 1.2zm8.8 5.4c.8 1.1 2.1 2 2.9 2 .8 0 2.6 2.6 4.1 6 2.1 4.9 3.4 6.5 7.4 9 2.7 1.6 5.6 3 6.4 3 1.9 0 2 3.9.1 4.6-1.1.4-1.3 1.2-.6 3 1.3 3.2-1.1 4.2-4.5 2-2.3-1.5-2.4-1.9-1.1-4.4 1.5-3 1.1-5.2-.9-5.2-.8 0-3.4-1.4-5.7-3-2.4-1.7-5.8-4.1-7.5-5.3-3.5-2.4-4.2-4.4-1.8-5.3 2.5-1 1.7-3-2.5-5.9-2.2-1.5-3.7-3.1-3.4-3.6.7-1.2 5.6.9 7.1 3.1zm4.6 20.5c4 2.8 5.3 7.5 2 7.5-2.9 0-8.3-4.9-8.3-7.6 0-3.1 1.6-3 6.3.1zM424.9 448.4c-1.3 1.3-3.9 2.7-5.6 3.1-1.8.3-3.4 1.2-3.4 1.8-.5 4.3.5 13.3 1.5 13.9 2.4 1.6 5.6.8 6.5-1.6 1-2.3 3.7-4.1 4.5-2.8.2.4.7 2.2 1.1 3.9.3 1.8 1.1 3.3 1.6 3.3s.9.6.9 1.4c0 1-1.6 1.7-4.7 2.1-7.5 1-8.3 1.4-8.3 4.1 0 2-.5 2.4-2.7 2.4-7.6.1-6.8 4.2 1.7 8.8 8.9 4.7 12.1 5.5 17 4.2 7.3-2 6.2-6.5-1.3-5.6-2.7.3-4 0-4.4-1-.3-.9-2-1.4-4.4-1.4-2.1 0-3.9-.4-3.9-1 0-.5 2.5-.7 6.3-.3 5.4.5 6.4.3 8-1.5 1.8-2 1.8-2-.2-2.7-3.1-1-2.5-2.5.9-2.5 2.3 0 3.3-.6 4.2-2.5.6-1.4 1.7-2.5 2.3-2.5.7 0 2.3-.9 3.7-2 2.3-1.7 2.7-1.8 4.6-.4 4 2.8 5.7-1 2.6-5.5-1.9-2.6-7.1-5.1-9.2-4.4-.7.3-1.8 1.6-2.3 2.9-1.1 3.1-4.4 3.1-6.5-.1-1.8-2.7-1.2-4.5 1.5-4.5.9 0 2.6-.6 3.6-1.4 1.6-1.1 1.7-1.7.7-2.9-.7-.8-1-2.1-.7-2.9.4-1.1-.7-2-3.7-3.1-6-2.3-9.1-2.1-11.9.7zM332 453.5c-.7.8-1 2.4-.7 3.5.6 2.3-1.6 4.5-3.8 3.6-.8-.3-1.5-1.7-1.5-3.1 0-3.4-3.3-3.1-3.8.3-.4 2.8-2.3 2.4-3.7-.6-1.4-3.1-2.9-2.2-3.3 1.8-.4 3.8 1.6 6 5.5 6 1.6 0 3 1.2 4.8 4 3.2 5 6.3 5.2 12.8.9 4.4-2.9 5.1-3.1 11-2.4 7.5.9 11.5 2.8 12.1 5.8 2.4 12.6 3.3 15.2 5.2 14.9 6.6-1.1 11.6-9.9 12.2-21.5.5-9.1-.1-9.5-6.4-3.7-3.7 3.4-5 4-8.8 4-5.6 0-6.8-1.6-3.3-4.5 1.5-1.1 2.7-2.5 2.7-3.1 0-1.3-8.4-5.4-11-5.4-1 0-2.2.4-2.5 1-.3.5 0 1 .8 1 2.7 0 4.1 2.8 2.9 5.5-1.4 3-3.1 3.1-6.4.6-1.3-1.1-4.4-2.1-6.9-2.3-4.3-.3-4.4-.4-4.7-4.1-.3-4-1.2-4.6-3.2-2.2zM399 484.2c-8.3 9.9-10.2 14.8-5.6 14.8 2.4 0 8.2-5.5 10.6-9.9 2.3-4.3-2-8.4-5-4.9z"/><path d="M288 491.3c0 3.5 4.2 14.7 5.8 15.6 1 .4 4.1 1.1 7.1 1.4 4.1.5 6.3 1.4 9.7 4.2 4.9 4 5.9 7.9 2.4 8.8-3.2.8-2.4 2.3 2.9 5.5 4.8 3 14 6.6 14.7 5.9.3-.2-1.9-2.2-4.8-4.3-9.8-7.3-7-11.5 7.1-10.9 11 .5 15.9 2.5 16.3 6.9.3 3 .5 3.1 5.8 3.4 9.2.6 21.8-1.7 27.8-5.1 2.9-1.6 5.2-3.1 5-3.2-.2-.2-3.4.7-7.3 2.1-9.1 3-22.1 3.4-25.5.6-3-2.4-2-5.4 2.6-8.3 3.8-2.3 4-3.8.3-1.8-7.5 4-33.3 2.3-44.4-3-7.6-3.6-15.6-9.3-21.2-15.1-3.1-3.3-4.3-4-4.3-2.7z"/><path d="M300.3 510.7c-2.4.9-1.3 2.9 2.6 5.1 7.1 4 9.4 2.4 4-2.8-3.2-3-4.2-3.3-6.6-2.3zM376.5 510.7c-1.1.2-5.3 1.6-9.2 3-6.3 2.2-7.3 2.9-7.3 4.9 0 3.5 3.8 3.1 12.6-1.1 5.5-2.7 7.4-4.1 7.4-5.5 0-1.1-.3-1.9-.7-1.9-.5.1-1.7.3-2.8.6zM327.1 520.8c-1 .8-1.1 1.4-.1 3.2 1.1 2.1 1.6 2.2 7.8 1.5 7.3-.7 9.3-1.8 7.4-3.7-1.5-1.5-13.2-2.2-15.1-1zM337.4 166.4c-1.1 2.8.2 5.1 3.6 6.8 1.9.9 4.5 1.7 5.8 1.8 1.8 0 2.2-.5 2.2-2.8 0-2.2-.8-3.3-3.9-5-4.5-2.6-6.9-2.8-7.7-.8zM149.3 133.1c-5 1.8-3.5 9.6 2.4 12.4 3.1 1.5 3.6 1.5 5.9.1 6.3-4.2-.9-15.2-8.3-12.5zM104.6 195.2c2 3.5 2.6 3.9 3.9 2.1 1-1.4 1-2 .2-2.5-2-1.3-4.9-.9-4.1.4zM71 307.7c-4 1.4-5.4 7.8-2.2 10.5.9.9 3.4 1.8 5.5 2.2 4.7.9 7.1 4.2 6.5 9.1-.5 4.3.8 4.1 4-.5 2.6-3.9 2.9-10.7.6-15.1-2.2-4.4-10-7.8-14.4-6.2zm3.8 6.7c-.2 1.5-1 2.1-2.8 2.1-3.1 0-4-3.3-1.4-5.2 2.2-1.6 4.6.1 4.2 3.1zM70.7 326.6c-.4.4-.7 1.6-.7 2.6 0 1.3.7 1.8 2.6 1.8 2.1 0 2.5-.4 2.2-2.2-.3-2.3-2.7-3.5-4.1-2.2zM560 308.1c-3 1.2-4 2.6-4 6 0 3.3 2.8 5.8 7.4 6.6 5.5.9 8 5.5 6.2 11.2l-.8 2.4 2.5-1.9c5.8-4.2 6.8-14.6 1.9-20.1-3.3-3.8-9.2-5.7-13.2-4.2zm3.9 4.3c1.7 2 .2 4.6-2.5 4.6-2.6 0-4-2-3-4.5.7-1.9 4-2 5.5-.1zM559.1 327.4c-.9 1.1-.8 1.7.4 3 2 2 4.7.9 4.3-1.8-.4-2.5-3-3.2-4.7-1.2zM168.9 511.3c-4.5 6.8-4.4 6.3-1.5 8.3 2.4 1.5 2.8 1.5 5.1 0 1.4-.9 3.3-3.2 4.2-5.1 1.4-2.9 1.4-3.7.3-5-3.2-3.9-4.5-3.6-8.1 1.8zM428 533.9c0 1.2.6 2.1 1.6 2.1.9 0 1.4-.7 1.2-1.7-.5-2.5-2.8-2.8-2.8-.4zM216.6 538.9c-1.5 1.6-1.5 1.9-.2 2.4.9.4 1.7-.2 2.1-1.4.9-2.8.1-3.3-1.9-1zM375.3 546.8c-1.7.2-2.3 1-2.3 2.9 0 2.2.3 2.4 2.8 1.8 1.5-.3 3.3-1.2 4.1-2 1.1-1.1 1-1.4-.5-2.2-1.1-.5-2.9-.7-4.1-.5zM236.6 542.7c-.8 2 1 3.3 4.7 3.3 3.2 0 3.7-2.4.8-4-2.8-1.5-4.8-1.2-5.5.7zM353.4 557.3c-.8 2.2-.1 3 2.1 2.5 1.4-.3 1.4-.5.1-2.3-1.4-1.9-1.5-1.9-2.2-.2zM462.8 67.2c-3.6 5.9-4.9 7.3-6.9 7.3-2.1 0-2.4-.5-2.4-3.4 0-3.6-2.1-5.3-3.6-3-1.7 2.8-1 6.7 1.7 8.8 3.5 2.7 7.5 2.7 10-.2 3.2-3.5 9.5-14.8 8.8-15.8-1.3-2.2-3.6-.4-7.6 6.3zM471.6 73.7c-5.6 8.8-6.8 12.3-4.3 12.3 1.8 0 12.9-16.7 12.5-18.7-.7-3.6-2.9-1.9-8.2 6.4zM484 71.6c0 .9 1 2.4 2.2 3.4 2.7 2.1 2.1 3.7-4.1 12-2.3 3-4 5.9-3.8 6.5 1 2.9 3.8 1 8.7-6 2.9-4.1 5.5-7.5 5.7-7.5.2 0 1.8.7 3.5 1.6 5.5 2.9 5.3 0-.4-4.3-10.3-7.8-11.8-8.5-11.8-5.7zM145.3 71.7c-1.8.7-1.6 3.1.8 13.7 2.3 9.6 3.2 11.6 5.6 11.6 1.2 0 1.3-.8.8-3.8-.6-3.6-.4-4 3.4-6.6 3.8-2.6 4.1-2.7 6.3-1.2 4.9 3.5 6.8.4 2.1-3.3-4-3-16.6-11.1-17.3-11-.3 0-1.1.3-1.7.6zm8.2 7.7c3 2.4 3 2.4 1.1 4.5-2.7 2.9-4.5 2.6-5.3-.9-.3-1.7-1-3.3-1.4-3.6-1.2-.7-.1-2.4 1.4-2.4.7 0 2.5 1.1 4.2 2.4zM130.5 83c-.7 1.1 2.1 5.4 5.5 8.5 5 4.5 5.8 9.5 1.9 11.5-3.5 1.9-5.6 1-10.8-5-5.3-6-8.1-7.5-8.1-4.2 0 2.3 10.8 13.7 13.8 14.7 2.5.7 8.3-2.3 10.7-5.8 2.4-3.5 1.8-6.6-2.7-12.1-6.5-8.1-8.9-9.8-10.3-7.6zM501.7 88.8c-2.4 2.6-2.1 4.7 1.3 10.7 2.3 3.9 2.7 5.4 1.8 6.3-3.5 3.5-9.5-1-8.3-6.1.7-2.8-1.2-4.8-2.6-2.6-2.6 4.1.5 10.6 6.1 12.9 3.8 1.6 7.5.2 9.1-3.4 1-2.1.7-3.3-2-7.9-3.2-5.7-3.3-8.7-.1-8.7 2.5 0 4.4 2.7 4.2 6-.3 3.5 1.4 4.8 3.5 2.7 1.4-1.3 1.4-2 .3-4.7-2.6-6.3-9.8-9.1-13.3-5.2zM108.9 101.6c-1.1 1.4-.9 2.5 1.9 7.7 1.7 3.3 2.9 6.3 2.6 6.6-.3.3-2.8-.6-5.5-2.2-5.9-3.2-7-3.3-9.4-.7-1.8 2-1.8 2.2 5.5 9.5 6.9 6.9 11 9.3 11 6.3 0-.7-1.7-2.9-3.7-5s-3.4-4-3.1-4.3c.3-.4 2.9.6 5.8 2 8.3 4.2 10.1 2.2 5.1-5.4-1.7-2.5-2.8-4.9-2.5-5.3.3-.5 2.5.7 4.9 2.7 4.5 3.7 6.5 4.4 6.5 2.2 0-1.8-14.3-15.7-16.2-15.7-.8 0-2.2.7-2.9 1.6zM517 107.7c-8.4 8.4-8.8 10.3-3.2 16.3 5.7 5.9 8.2 5.5 16.5-2.3 6.1-5.6 8.4-9.7 5.6-9.7-.6 0-3.9 2.5-7.2 5.5-6.9 6.1-10.5 7-12.9 3.2-2-3-1-5.2 5-10.9 6.3-5.9 6.5-6.3 4.7-7.8-1.3-1.1-2.6-.2-8.5 5.7zM64.7 449.2c-4.8 2.9-8.7 5.8-8.7 6.5 0 2.1 1.9 2.4 5 .8 3.2-1.6 8-1.1 8 .9 0 .6-1.1 3.1-2.5 5.5-2.8 4.8-3.2 7.6-1.2 8.4.9.3 2.5-1.8 4.7-6.4 3.6-7.3 4.3-7.7 9.9-5.8 2.5.9 3.5.9 4.4 0 1.8-1.8-1.2-3.6-8.3-5-3.3-.7-6-1.6-6-2 0-.4 1.6-1.6 3.5-2.7 3.7-2 4.8-5.4 1.7-5.4-1 0-5.7 2.4-10.5 5.2zM560.5 447.1c-1.1.5-3 2.5-4.2 4.4-4.1 6.2-2.5 12.4 4.2 16.2 4.9 2.8 8 2.9 12.3.3 3.6-2.2 5.2-5.4 5.2-10.4 0-7.7-10.4-13.9-17.5-10.5zm10.3 5.5c5.7 3.7 4.6 11.6-1.7 12.2-4.8.5-9.1-1.6-10.6-5.2-1.1-2.6-1.1-3.5.3-5.8 2.4-4.1 6.8-4.5 12-1.2zM78.3 469.7c-6.1 3.8-9.3 6.4-9.3 7.5 0 2.7 1.5 2.3 11.7-3.8 6.2-3.8 9.3-6.2 9.1-7.2-.5-2.7-2.1-2.2-11.5 3.5zM547.7 468.6c-1.6.8-4.1 3.6-5.7 6.1-2.4 3.7-2.7 4.9-1.8 6.1 1.9 2.3 15.5 11.2 17.1 11.2 2 0 6.7-7.5 7.4-11.5.7-4.4-2.6-9.1-8.1-11.6-4.9-2.2-5.3-2.2-8.9-.3zm8.3 4.9c3.2 1.6 5 4.3 5 7.2-.1 2.1-3.6 6.6-4.7 6.1-2.3-.9-12.3-8.2-12.3-8.8 0-.4.9-1.9 2.1-3.4 2.3-3 5.6-3.3 9.9-1.1zM84.7 476.1c-4.2 2.2-7.7 7.1-7.7 10.9 0 6.3 6.8 12.1 12 10.3 3.9-1.3 3.2-3.9-.8-3.5-10.4 1-9.2-12.8 1.2-14.5 5.4-.9 8 1.8 7.1 7.4-.5 3.5-.3 4.3.9 4.3 2.3 0 3.9-3.8 3.2-7.4-.6-3.3-3.3-6.4-7.3-8.5-2.9-1.5-4.2-1.4-8.6 1zM534 485.5c0 .8 2 2.9 4.4 4.7 7.3 5.4 6.9 6-3.6 5.6-13.2-.4-13.1 1.1 1.4 12.8 5.4 4.3 7.8 4.9 7.8 2 0-.7-2.2-3-5-5.2-2.7-2.1-4.9-4.3-5-4.7 0-.5 3.8-.6 8.5-.2 8.8.8 12.3-.2 10.7-3-1.1-2-16.3-13.5-17.8-13.5-.8 0-1.4.7-1.4 1.5zM97.4 496.2c-3.6 3.5-7 6.4-7.5 6.6-.5.2-.9 1.2-.9 2.3 0 2.3 3.2 2.6 5 .4.7-.8 2.8-1.5 4.7-1.5 2.8 0 3.3.3 2.9 1.7-2.3 7.7-2.8 11.5-1.7 12.6 1.7 1.7 3.1-.3 5.1-7.5l1.7-6.3 4.7.3c3.6.3 4.7 0 5.2-1.3 1-2.5-1.3-3.5-8.3-3.5-3.5 0-6.3-.3-6.3-.7 0-.4 1.4-2.1 3.1-3.9 3.1-3.2 3.2-5.4.4-5.4-.8 0-4.4 2.8-8.1 6.2zM515.8 506.8c-6.5 4.8-7.4 9.7-2.9 15.9 3.3 4.6 7.8 6.8 12.1 6 5.8-1.2 10.9-8.1 9.6-13.1-1.3-5.1-8.8-11.7-13.3-11.6-1 .1-3.5 1.3-5.5 2.8zm12 5.5c3.5 3.7 3.8 7.2.8 10.1-3 3.1-5 3.2-9.2.7-4.1-2.5-6.1-7.3-4.4-10.5 2.6-4.9 8.4-5 12.8-.3zM112.5 514.7c-4.1 4.2-7.5 8-7.5 8.3 0 1.5 11 11 12.7 11 3.2 0 6.3-2.9 6.3-5.9 0-2.3.5-3 2.8-3.4 3.4-.7 5.5-4.4 4-7.3-1.4-2.5-6.9-8.3-9-9.5-1.4-.7-3.2.6-9.3 6.8zm12.2-.5c2.7 2.5 3 6.3.7 7.2-1.9.7-8.4-3.2-8.4-5.1 0-1 3.7-4.3 4.9-4.3.3 0 1.5 1 2.8 2.2zm-5.8 8.2c4.9 5.3-.9 9.1-6.5 4.2-2.8-2.4-2.9-2.4-1-4.5 2.5-2.7 4.7-2.7 7.5.3zM503.2 518.8c-1 .7-.4 2.3 2.3 6.7 2.1 3.5 3.1 6.3 2.6 6.8s-3.1-.6-6.2-2.7c-8.4-5.8-11-3.6-6.5 5.5 4.1 8.1 3.3 8.9-3.8 3.4-5-3.8-7.3-4.4-8.2-2-.4.8-1.4 1.5-2.4 1.5-2.1 0-3 1.9-3.6 8-.9 7.7-1.2 7.9-4.9 3.5-2.7-3.1-3.7-3.7-4.6-2.8-.9.9-1 1.8-.2 3.5 1.6 3.4 12.3 16.8 13.4 16.8 1.4 0 1.1-3.8-.6-6.3-1.5-2.4-1-6.7.9-6.7.6 0 3.5.9 6.5 2.1 3.5 1.3 5.7 1.7 6.4 1 2-2-.3-4-6.5-5.9-6.8-2-6.5-1.5-5.7-9.5.5-4.1 1.5-4.2 5.7-.9 2 1.6 6.3 4.6 9.6 6.7 4.6 2.9 6 3.4 6.7 2.4 1.3-2.1 1.1-2.9-2-9.6-1.7-3.4-2.7-6.5-2.2-6.7.4-.3 3.5 1.3 6.9 3.4 10.5 6.6 11.4 4 3.9-10.4-4.3-8.2-5.3-9.2-7.5-7.8zM133 526.8c-8.4 4.2-10.4 14-3.9 19.4 4.2 3.5 8 4.3 11.6 2.5 10.4-5.4 11-18.2 1.1-22.2-4.7-1.9-4.6-1.9-8.8.3zm9.5 4.7c3 2.9 3.2 6.4.5 9.8-2.5 3.2-8.7 5.2-10.7 3.5-4.2-3.5-3.5-10 1.5-13.7 3.6-2.7 5.8-2.6 8.7.4zM153 538.6c-.6 1.4-1 4-1 5.8 0 4-1.1 5-6.6 6.5-4.4 1.2-6.5 3.8-3.9 4.7.8.4 2.9.1 4.6-.5 5.3-1.8 5.8-1.5 6.1 4.1.2 3.9.7 5.3 1.8 5.3 1 0 1.6-1.2 1.8-4 .5-7.7.9-8.4 6.7-11 4.1-1.8 5.3-2.8 4.9-3.9-.8-2-1.3-2-5.7-.1-5.3 2.2-5.9 1.9-5.7-2.3.3-5.8.1-7.2-1-7.2-.6 0-1.5 1.2-2 2.6zM170.2 549.3c-3.8 4.6-11.2 16.5-11.2 17.9 0 1.1.7 1.8 1.8 1.8s3.8-3.3 7.5-9c3.1-5 5.7-9.4 5.7-9.9 0-1.5-2.8-2.1-3.8-.8zM457.1 553.7c-3.4 1.9-6.5 4.1-6.8 4.9-.6 1.6 8.5 18.1 10.5 18.9 2.3.8 14.2-6.8 14.2-9.2 0-2-1.8-1.6-6.5 1.7-5.2 3.6-5.5 3.6-7.7.5-2.1-2.8-1.4-3.8 4.5-7 2-1.1 3.7-2.5 3.7-3.2 0-1.9-1.7-1.6-6.7 1.4-4.4 2.6-4.6 2.6-5.9.8-2.1-2.8-1.8-3.3 3.6-6.6 2.8-1.7 5-3.5 5-3.9 0-2.1-2-1.6-7.9 1.7zM177.6 555.2c-7.6 12.1-10.4 17.2-9.9 18.4.8 2.2 3.5.1 6.7-5.5 1.6-2.7 3.3-4.8 3.8-4.5.4.3.8 4.1.8 8.4 0 6.1.4 8.2 1.7 9.6 1.6 1.6 1.8 1.5 3.6-.7 3.3-4.2 10.7-16.3 10.7-17.6 0-3.2-3.7-.9-6.9 4.2-1.8 3-3.7 5.2-4.2 4.9-.5-.3-.9-4.2-.9-8.8 0-10.1-2.2-13.4-5.4-8.4zM436.1 564.9c-1.2.7-1.2 2.8-.3 12.6.6 6.5 1.4 12 1.6 12.3.3.2 1.3.2 2.2-.2 1.2-.4 1.5-1.5 1.2-3.7-.4-2.8-.1-3.2 4.2-5.4 4.7-2.4 4.8-2.4 6.5-.5 2.1 2.4 4.1 2.6 4.8.6.4-1-2.4-4.1-7.9-8.8-9-7.7-10.1-8.3-12.3-6.9zm7.8 7.5l3.3 3.4-3.1 1.7c-1.7.9-3.6 1.3-4.1 1-1.6-1-1.2-9.5.5-9.5 0 0 1.6 1.5 3.4 3.4zM195.4 570.6c-3.3 3.4-4 6.1-3.4 11.9.4 4.2 8.2 9.5 13.9 9.5 2.5 0 3.4-.7 5-3.8 2.2-4.4 1.9-5.3-2.8-7.6-2.5-1.3-3.6-1.5-4.5-.6-.8.8-.6 1.5.8 2.5 1 .8 2.3 1.6 2.8 1.7 2.1.7-.5 3.8-3.2 3.8-4.2 0-8-3.5-8-7.3 0-4 3.2-9.3 6-10.2 3.5-1.1 7.9 1.3 8.8 4.8.9 3.5 2.9 4.7 3.8 2.3 1.9-5-4.2-10.6-11.6-10.6-3.6 0-4.8.6-7.6 3.6zM420.5 571.5c-4.7 1.9-8.1 4-8.3 4.9-.4 1.8.6 2 4.2.6 3-1.1 3.1-1.1 7.1 8.9 1.7 4.1 3.6 7.6 4.3 7.9 2.4.8 2.4-3.1-.1-9.6-1.5-3.7-2.9-7.5-3.3-8.5-.5-1.3.1-2 2.5-2.8 2-.7 3.1-1.8 3.1-3 0-2.4.1-2.4-9.5 1.6zM244.6 583.7c-1.3 4-3.4 13-4.1 17-.6 3.9-.5 4.3 1.4 4.3 1.4 0 2.2-.8 2.7-2.8 1.4-6.7 1.8-7.1 6.9-5.9l4.7 1.1-.7 5.2c-.4 3.6-.2 5.4.6 6 1.8 1.1 3.6-2 4.8-8.4 1.7-9.3 2.2-11.5 2.6-12.3.3-.4-.2-1.3-1.1-2-1.3-1-1.7-1-2.5.2-.5.8-.9 2-.9 2.7 0 .7-.4 2.1-1 3.1-.8 1.6-1.5 1.7-5.5.8l-4.6-1.1.3-4.5c.2-3.6 0-4.6-1.4-4.9-.9-.2-1.9.5-2.2 1.5zM370.4 587c-6.4 4.1-6.9 12.1-1.2 18.5 2.6 3.1 3.6 3.5 7.8 3.5 9 0 14-7.6 10.6-16.3-2.8-7.3-10.6-9.9-17.2-5.7zm11.9 5c2 3.3 2.2 8.9.5 11.3-.7.9-2.5 1.9-4 2.2-4.1 1-8.8-3.9-8.8-9.3 0-7.7 8.5-10.6 12.3-4.2zM269.1 597.7c-3.3 5.4-6.1 10.3-6.1 11 0 2.1 2.5 1.5 4.7-1.1 1.9-2.2 2.4-2.3 6.6-1.3 3.8.8 4.7 1.5 5.2 3.8.7 3.2 3.3 4.6 4.2 2.2.4-.9-.3-6.4-1.5-12.2-3.3-15.5-4.7-15.7-13.1-2.4zm9.1.4c1 4.7.4 6-2.8 5.5-4.4-.8-4.9-2.1-2.4-6.1 2.6-4.3 4.2-4.1 5.2.6zM222 590.2c0 1.8 6.8 4.4 8.1 3.1 1.3-1.3-1-3.1-4.9-3.9-2.4-.5-3.2-.3-3.2.8zM348.5 589.9l-5 .6.3 8.5c.1 4.7.7 9.9 1.3 11.7 1 3.2 1.1 3.2 5.7 2.6 2.6-.3 6.1-1.2 7.9-2 7.2-3.3 6.8-16.9-.6-20.7-1.6-.9-3.4-1.5-3.8-1.4-.4 0-3 .4-5.8.7zm8.9 5.3c1.7 2.4 2.1 9.4.8 11.6-1 1.6-7.4 3.4-8.4 2.4-.4-.4-1-4.2-1.4-8.5l-.7-7.7h4.1c3.1 0 4.5.5 5.6 2.2zM290.2 591.2c-1.6 2.1-2.6 21.4-1.1 22.3 1.7 1.1 3.9-2.2 3.9-5.7 0-2.7.2-2.8 4.5-2.8 7.4 0 11.9-6.3 8.2-11.4-2.2-3-13.5-4.8-15.5-2.4zm11.3 6.3c0 2.8-.3 3-4.3 3.3-4.3.3-4.3.3-3.9-2.7.7-4.4 1.3-4.9 4.9-4.2 2.8.6 3.3 1.1 3.3 3.6zM310 592c-1 .6-1.2 3.1-.7 10.7.3 5.4.8 10.6 1.2 11.5 1.3 3.3 3.3 1.9 3.9-2.6.4-2.4 1.4-5 2.3-5.7 1.6-1.4 2.9-.4 7.9 6.5 1.4 2 2.6 2.7 3.8 2.3 2.4-.9 2-2-2.4-7.6-2.2-2.8-4-5.6-4-6.4 0-.7 1.4-2.6 3-4.2 3.3-3.2 3.7-4.3 1.6-5.1-.8-.3-3.3 1.5-6.1 4.5-2.6 2.8-5.2 5.1-5.6 5.1-.5 0-.9-2-.9-4.4 0-4.5-1.5-6.2-4-4.6zM333.5 601.2c.4 5.7 1.2 11.1 1.7 12.1 2.8 5.4 4.6-3.8 3.1-15.8-.7-5.3-1.1-6-3.1-6.3l-2.4-.4.7 10.4zM402 591.9c-3.6 1-3.3 3.7.4 3.4 4.2-.3 5.6-1 5.6-2.8 0-1.6-1.8-1.8-6-.6z"/></svg>