<svg version="1" xmlns="http://www.w3.org/2000/svg" width="720" height="720" viewBox="0 0 540.000000 540.000000"><path d="M247.9 9C193.8 14.3 144.8 33.9 104 66.7c-14.4 11.6-35.7 33.4-44.5 45.7-1.1 1.6-3.4 4.7-5.1 7-11.1 14.9-25.6 42.3-32.6 62.1-12.7 35.3-17.4 68.8-15 106.3 1.5 23.4 6.8 50.2 13.3 67.2 1.1 3 2.9 8 4 11s4.6 10.9 7.8 17.5c30 62.3 83.9 110.8 148.8 134 57.4 20.6 121.7 20.5 179 0 41.3-14.9 82.2-42.7 109.6-74.4 37-42.9 58.4-92.5 63.8-148 1.5-14.6.6-49-1.5-63.1-8.5-57-35.6-109.1-78.3-150.3-7.8-7.6-11.5-10.7-24.4-20.8-7.8-6.2-24.8-16.8-36.9-23.1-25.7-13.4-53.2-22.2-84.5-26.9-14.8-2.2-46.2-3.2-59.6-1.9z"/></svg>